<svg id="Layer_1" data-name="Layer 1" xmlns="http://www.w3.org/2000/svg" xmlns:xlink="http://www.w3.org/1999/xlink" viewBox="0 0 947.01 929.02"><defs><style>.cls-1,.cls-17,.cls-18,.cls-19,.cls-20,.cls-22,.cls-29,.cls-30,.cls-38,.cls-54,.cls-65,.cls-67{fill:none;}.cls-2,.cls-48,.cls-58,.cls-68,.cls-9{fill:#e4f4fc;}.cls-12,.cls-3,.cls-44,.cls-76{fill:#b54a41;}.cls-10,.cls-11,.cls-12,.cls-13,.cls-14,.cls-15,.cls-16,.cls-17,.cls-18,.cls-19,.cls-20,.cls-21,.cls-22,.cls-27,.cls-28,.cls-29,.cls-3,.cls-30,.cls-31,.cls-34,.cls-35,.cls-36,.cls-38,.cls-39,.cls-4,.cls-40,.cls-42,.cls-44,.cls-45,.cls-47,.cls-48,.cls-49,.cls-5,.cls-50,.cls-51,.cls-52,.cls-53,.cls-54,.cls-57,.cls-58,.cls-59,.cls-6,.cls-60,.cls-64,.cls-65,.cls-67,.cls-68,.cls-7,.cls-72,.cls-8,.cls-9{stroke:#000;}.cls-10,.cls-11,.cls-12,.cls-13,.cls-14,.cls-15,.cls-16,.cls-17,.cls-18,.cls-20,.cls-21,.cls-22,.cls-27,.cls-3,.cls-30,.cls-31,.cls-4,.cls-40,.cls-42,.cls-44,.cls-45,.cls-47,.cls-48,.cls-5,.cls-6,.cls-7,.cls-8,.cls-9{stroke-miterlimit:10;}.cls-10,.cls-13,.cls-14,.cls-15,.cls-16,.cls-17,.cls-21,.cls-22,.cls-28,.cls-3,.cls-31,.cls-34,.cls-35,.cls-36,.cls-4,.cls-40,.cls-42,.cls-44,.cls-47,.cls-48,.cls-49,.cls-5,.cls-50,.cls-51,.cls-52,.cls-53,.cls-54,.cls-57,.cls-58,.cls-6,.cls-60,.cls-64,.cls-65,.cls-68,.cls-7,.cls-8{stroke-width:2px;}.cls-4{fill:#d7308e;}.cls-5,.cls-70{fill:#593684;}.cls-25,.cls-34,.cls-53,.cls-6{fill:#fce8e8;}.cls-7{fill:#55a6da;}.cls-46,.cls-50,.cls-75,.cls-8{fill:#0f74ed;}.cls-10,.cls-23,.cls-28,.cls-39{fill:#61bda7;}.cls-11,.cls-40,.cls-41,.cls-49{fill:#f8f4e3;}.cls-13,.cls-77{fill:#5e992b;}.cls-14,.cls-33,.cls-35{fill:#f48997;}.cls-15,.cls-24,.cls-36,.cls-45{fill:#ffc200;}.cls-16,.cls-27,.cls-52{fill:#71cdf5;}.cls-18,.cls-19{stroke-width:2.4px;}.cls-19,.cls-28,.cls-29,.cls-34,.cls-35,.cls-36,.cls-38,.cls-39,.cls-46,.cls-49,.cls-50,.cls-51,.cls-52,.cls-53,.cls-54,.cls-57,.cls-58,.cls-59,.cls-60,.cls-64,.cls-65,.cls-67,.cls-68,.cls-71,.cls-72{stroke-linejoin:round;}.cls-21,.cls-73{fill:#962d73;}.cls-22,.cls-28,.cls-29,.cls-30,.cls-44,.cls-46,.cls-49,.cls-50,.cls-51,.cls-52,.cls-53,.cls-54,.cls-57,.cls-58,.cls-59,.cls-60,.cls-67,.cls-68,.cls-71{stroke-linecap:round;}.cls-26,.cls-47{fill:#1f4753;}.cls-30{stroke-width:3px;}.cls-32{clip-path:url(#clip-path);}.cls-37,.cls-42,.cls-74{fill:#f8bfd0;}.cls-37,.cls-56,.cls-62{isolation:isolate;}.cls-43{clip-path:url(#clip-path-2);}.cls-46{stroke:#0f74ed;}.cls-51{fill:#436029;}.cls-55{fill:#e9faff;}.cls-56,.cls-62{fill:#00b0eb;opacity:0.25;}.cls-57,.cls-59,.cls-60,.cls-64,.cls-69,.cls-71,.cls-72{fill:#fff;}.cls-57,.cls-58,.cls-59,.cls-62{fill-rule:evenodd;}.cls-61{fill:#b7b7b7;}.cls-63{fill:#617178;}.cls-66{fill:#263135;}.cls-67{stroke-width:5px;}.cls-71{stroke:#fff;}</style><clipPath id="clip-path" transform="translate(-5.31 -6.58)"><path class="cls-1" d="M859,134.1a11.65,11.65,0,0,1-3.43,8.26,12.1,12.1,0,0,1-6.94,3.35v33.37c0,2-1.47,4.21-3.49,4.21H792.07c-2,0-3.78-2.33-3.78-4.35V145.57A11.49,11.49,0,0,1,778.2,134.1a11.69,11.69,0,0,1,11.71-11.69h57.43A11.69,11.69,0,0,1,859,134.1Z"/></clipPath><clipPath id="clip-path-2" transform="translate(-5.31 -6.58)"><path class="cls-1" d="M753,675.86c-.84-23.73-20.16-42.49-44.56-42.6-23.25-.11-44,19.24-43.95,42.68a43.65,43.65,0,0,0,43.95,43.3C732.9,719.24,753.82,700.37,753,675.86Z"/></clipPath></defs><title>&amp;amp;yet_site design_hero design-final for desktop</title><path class="cls-2" d="M147.6,524.81H110.75a.07.07,0,0,0,0,.14,21.14,21.14,0,0,1-3,40.57.08.08,0,0,0,0,.15h11.68a16.59,16.59,0,1,1,0,33.17H60c-8.82,0-16.54-6.64-17.13-15.44a16.6,16.6,0,0,1,12.83-17.31.08.08,0,0,0,0-.15H27a21.14,21.14,0,1,1,0-42.28H52.89a.07.07,0,0,0,0-.14,13.09,13.09,0,0,1,5.66-24.91h89a.08.08,0,0,1,.08.08v26A.09.09,0,0,1,147.6,524.81Z" transform="translate(-5.31 -6.58)"/><path class="cls-3" d="M754.24,109c-.61-.74-4.59-5.21-6-6.89a13.67,13.67,0,0,1-16.93-3.36,14.29,14.29,0,0,1,1.51-20.18l0,0,32.68-28.16-5.79-6.72S727.21,71.64,727,71.8c-13.46,10.33-10.79,23-2.43,32.69A22.67,22.67,0,0,0,754.24,109Z" transform="translate(-5.31 -6.58)"/><rect class="cls-4" x="99.96" y="354.24" width="375.77" height="375.77" transform="matrix(-1, 0, 0, -1, 571.77, 1076.91)"/><rect class="cls-5" x="617.06" y="76.69" width="137.33" height="137.33" transform="translate(1366.13 284.13) rotate(-180)"/><rect class="cls-6" x="754.11" y="76.69" width="137.33" height="137.33" transform="translate(1640.24 284.13) rotate(-180)"/><rect class="cls-7" x="6.31" y="260.8" width="93.41" height="93.41" transform="translate(100.72 608.43) rotate(-180)"/><rect class="cls-8" x="205.92" y="345.43" width="42.52" height="63.21" rx="4.21" transform="translate(-205.38 264.49) rotate(-45)"/><rect class="cls-9" x="209.27" y="352.69" width="30.47" height="43.36" transform="translate(-204.28 261.82) rotate(-45)"/><circle cx="244.45" cy="394.3" r="2.51" transform="translate(-212.53 281.76) rotate(-45)"/><path class="cls-10" d="M251.2,443.41,201,393.22a8.22,8.22,0,0,0-11.61,0l-65.27,65.27a8.24,8.24,0,0,0,0,11.64h0l50.19,50.19a8.21,8.21,0,0,0,11.59,0L251.2,455A8.21,8.21,0,0,0,251.2,443.41Zm-63.15,61a2.06,2.06,0,0,1-2.91,0h0l-44.25-44.25a2,2,0,0,1,0-2.89l52.43-52.43a2,2,0,0,1,2.89,0l44.25,44.25a2.05,2.05,0,0,1,0,2.9Z" transform="translate(-5.31 -6.58)"/><rect class="cls-11" x="151.56" y="421.25" width="78.26" height="66.69" rx="1.83" transform="translate(-270.91 261.4) rotate(-45)"/><circle cx="151.12" cy="481.94" r="3.47"/><rect class="cls-12" x="178.55" y="423.92" width="39.27" height="45.58" rx="1.83" transform="translate(-263.14 264.39) rotate(-45)"/><path class="cls-3" d="M870.94,120.5a12.09,12.09,0,0,1-10.52,12V167.6a3.79,3.79,0,0,1-3.79,3.78H801.8A3.78,3.78,0,0,1,798,167.6V132.48a12.09,12.09,0,0,1,1.56-24.07h59.28A12.08,12.08,0,0,1,870.94,120.5Z" transform="translate(-5.31 -6.58)"/><path class="cls-13" d="M828.09,102.41h0a6.43,6.43,0,0,1,12.24.45h0a6.43,6.43,0,0,0,9.41,3.82h0a6.44,6.44,0,0,1,9.09,8.22h0a6.44,6.44,0,0,0,4.75,9h0A6.43,6.43,0,0,1,865.26,136h0a6.44,6.44,0,0,0-2.13,9.94h0a6.43,6.43,0,0,1-6.51,10.37h0a6.44,6.44,0,0,0-8,6.24h0a6.44,6.44,0,0,1-11.66,3.77h0a6.44,6.44,0,0,0-10.16-.38h0a6.44,6.44,0,0,1-11.35-4.61h0a6.43,6.43,0,0,0-7.53-6.82h0a6.43,6.43,0,0,1-5.73-10.82h0a6.44,6.44,0,0,0-1.39-10.07h0a6.44,6.44,0,0,1,2.57-12h0a6.44,6.44,0,0,0,5.4-8.6h0a6.43,6.43,0,0,1,9.67-7.52h0A6.44,6.44,0,0,0,828.09,102.41Z" transform="translate(-5.31 -6.58)"/><path class="cls-14" d="M859.43,145.64a36.52,36.52,0,0,1-36.51,36.51c-20.16,0-34.12-18-34.12-38.15s14-34.87,34.12-34.87A36.52,36.52,0,0,1,859.43,145.64Z" transform="translate(-5.31 -6.58)"/><rect class="cls-15" x="787.32" y="109.64" width="61.9" height="63.32" rx="3.94"/><path class="cls-14" d="M805.7,76.13a1.23,1.23,0,0,1,0,1.74,1.27,1.27,0,0,1-.12.1l-8.31,7.22a1.22,1.22,0,0,1-1.74,0l-.09-.1L740,21.48,736.5,8.79a1.31,1.31,0,0,1,1.39-1.2L750,12.75Z" transform="translate(-5.31 -6.58)"/><path class="cls-16" d="M796.23,65.28,750.55,12.94c-.5-.59-3.48,6.72-3.48,6.72s-7.29,1.79-6.78,2.25l45.65,52.44Z" transform="translate(-5.31 -6.58)"/><line class="cls-17" x1="786.03" y1="63.48" x2="741.96" y2="13.04"/><line class="cls-18" x1="791.1" y1="59.03" x2="780.83" y2="68.01"/><line class="cls-17" x1="794.83" y1="63.42" x2="784.67" y2="72.28"/><path d="M737.41,8.71l.24-.21a1.23,1.23,0,0,1,1.74,0,.52.52,0,0,1,.1.11l.8.92a1.23,1.23,0,0,1,0,1.74l-.12.1-.24.21a1.22,1.22,0,0,1-1.74,0l-.09-.1-.81-.93A1.47,1.47,0,0,1,737.41,8.71Z" transform="translate(-5.31 -6.58)"/><polyline class="cls-19" points="744.71 6.17 741.75 13.13 734.67 14.94"/><path class="cls-14" d="M805.7,76.13a1.23,1.23,0,0,1,0,1.74,1.27,1.27,0,0,1-.12.1l-8.31,7.22a1.22,1.22,0,0,1-1.74,0l-.09-.1L740,21.48,736.5,8.79a1.31,1.31,0,0,1,1.39-1.2L750,12.75Z" transform="translate(-5.31 -6.58)"/><path class="cls-16" d="M796.23,65.28,750.55,12.94c-.5-.59-3.48,6.72-3.48,6.72s-7.29,1.79-6.78,2.25l45.65,52.44Z" transform="translate(-5.31 -6.58)"/><line class="cls-20" x1="786.03" y1="63.48" x2="741.96" y2="13.04"/><line class="cls-18" x1="791.1" y1="59.03" x2="780.83" y2="68.01"/><line class="cls-20" x1="794.83" y1="63.42" x2="784.67" y2="72.28"/><path d="M737.41,8.71l.24-.21a1.23,1.23,0,0,1,1.74,0,.52.52,0,0,1,.1.11l.8.92a1.23,1.23,0,0,1,0,1.74l-.12.1-.24.21a1.22,1.22,0,0,1-1.74,0l-.09-.1-.81-.93A1.47,1.47,0,0,1,737.41,8.71Z" transform="translate(-5.31 -6.58)"/><polyline class="cls-19" points="744.71 6.17 741.75 13.13 734.67 14.94"/><path class="cls-3" d="M755.05,154.76h32.08v8.86H755.05" transform="translate(-5.31 -6.58)"/><path class="cls-13" d="M890.64,213.71A79.91,79.91,0,0,0,823.36,177a81,81,0,0,0-67.87,36.76Z" transform="translate(-5.31 -6.58)"/><rect class="cls-3" x="763.84" y="31.26" width="4.29" height="9.62" rx="2.15" transform="translate(297.63 -581.76) rotate(50.16)"/><rect class="cls-3" x="766.59" y="34.56" width="4.29" height="9.62" rx="2.15" transform="translate(301.15 -582.69) rotate(50.16)"/><rect class="cls-3" x="769.4" y="37.86" width="4.29" height="9.62" rx="2.15" transform="translate(304.69 -583.66) rotate(50.16)"/><rect class="cls-3" x="772.14" y="41.14" width="4.29" height="9.62" rx="2.15" transform="translate(308.2 -584.58) rotate(50.16)"/><path class="cls-3" d="M891.57,117.71c0,1,.08,6.93.07,9.15a13.67,13.67,0,0,1,10.63,13.59A14.29,14.29,0,0,1,888,154.76h-39.2v8.86H888a23.17,23.17,0,0,0,23.18-23.18A22.66,22.66,0,0,0,891.57,117.71Z" transform="translate(-5.31 -6.58)"/><rect class="cls-9" x="1.48" y="323.95" width="23.06" height="23.06"/><rect class="cls-9" x="24.58" y="300.82" width="23.06" height="23.06"/><rect class="cls-9" x="47.67" y="323.95" width="23.06" height="23.06"/><rect class="cls-9" x="70.77" y="300.82" width="23.06" height="23.06"/><rect class="cls-9" x="1.48" y="277.95" width="23.06" height="23.06"/><rect class="cls-9" x="24.58" y="254.82" width="23.06" height="23.06"/><rect class="cls-9" x="47.67" y="277.95" width="23.06" height="23.06"/><rect class="cls-9" x="70.77" y="254.82" width="23.06" height="23.06"/><rect class="cls-21" x="41.34" y="235.82" width="75.88" height="58.78" rx="2"/><line class="cls-20" x1="41.34" y1="246.2" x2="117.22" y2="246.2"/><circle cx="46.96" cy="240.88" r="1.69"/><circle cx="52.08" cy="240.88" r="1.69"/><circle cx="57.2" cy="240.88" r="1.69"/><polyline class="cls-22" points="48.65 253.98 53.37 257.09 48.65 260.12"/><line class="cls-22" x1="58.41" y1="260.12" x2="66.57" y2="260.12"/><path class="cls-14" d="M110.7,288.07a3.75,3.75,0,0,0-3.43-1.8c-2,0-3.86,2.29-5.25,4-.54.65-1.22,1.47-1.42,1.47s-.78-.81-1.26-1.44c-1.25-1.67-3.14-4.19-5.19-4.19a4.47,4.47,0,0,0-4,2.25c-.6,1.1-1,3.11.2,6.38,2.21,5.77,8.64,11.93,9,12.3a1.51,1.51,0,0,0,2.12.26,1.28,1.28,0,0,0,.26-.26,44.76,44.76,0,0,0,3.78-3.89,24.92,24.92,0,0,0,5.19-8.43C111.59,291.84,111.59,289.56,110.7,288.07Z" transform="translate(-5.31 -6.58)"/><path class="cls-23" d="M653.54,214H636.27c13.66-45.76-13.32-91.51.34-137.26h16.6C639.77,122.53,667,168.28,653.54,214Z" transform="translate(-5.31 -6.58)"/><path class="cls-17" d="M653.54,214H636.27c13.66-45.76-13.32-91.51.34-137.26h16.6C639.77,122.53,667,168.28,653.54,214Z" transform="translate(-5.31 -6.58)"/><path class="cls-2" d="M694.54,214H677.27c13.66-45.76-13.32-91.51.34-137.26h16.6C680.77,122.53,708,168.28,694.54,214Z" transform="translate(-5.31 -6.58)"/><path class="cls-17" d="M694.54,214H677.27c13.66-45.76-13.32-91.51.34-137.26h16.6C680.77,122.53,708,168.28,694.54,214Z" transform="translate(-5.31 -6.58)"/><path class="cls-24" d="M735.54,214H718.27c13.66-45.76-13.32-91.51.34-137.26h16.6C721.77,122.53,749,168.28,735.54,214Z" transform="translate(-5.31 -6.58)"/><path class="cls-17" d="M735.54,214H718.27c13.66-45.76-13.32-91.51.34-137.26h16.6C721.77,122.53,749,168.28,735.54,214Z" transform="translate(-5.31 -6.58)"/><rect class="cls-25" x="288.57" y="214.27" width="328.36" height="327.81" transform="translate(900.18 749.75) rotate(-180)"/><rect class="cls-26" x="283.1" y="497.19" width="328.5" height="38.54"/><path class="cls-15" d="M453.71,679.22a4.21,4.21,0,0,1-4.56,6.31c-16.16-3.83-46.67-11-48.63-11h-39.9c-24.89,0-45.87-19.57-46.45-44.45a45.55,45.55,0,0,1,45.53-46.63h39.88c25.12,0,46.54,20.54,46.48,45.66a45.28,45.28,0,0,1-7.64,25.12Z" transform="translate(-5.31 -6.58)"/><path class="cls-3" d="M430.89,629.28a5.27,5.27,0,0,0-5.28-5.27H375.73a11.57,11.57,0,0,0-20.1-10.94,13.07,13.07,0,0,0-1.05-1.2,11.57,11.57,0,1,0-16.37,16.36,13.18,13.18,0,0,0,1.21,1,11.9,11.9,0,0,0-1.22,1.05,11.58,11.58,0,0,0,16.37,16.37,12.19,12.19,0,0,0,1.06-1.22,10.93,10.93,0,0,0,1.05,1.22,11.57,11.57,0,0,0,19.05-12.14h25.64v8.76h6.35l1.08-5.11h5.75l1.08,5.11h6.49v-8.76h3.49A5.28,5.28,0,0,0,430.89,629.28Zm-70.67,0c-.42.31-2.42,1.41-2.81,1.79s-1.47,2.38-1.78,2.81c-.32-.43-1.41-2.42-1.79-2.81s-2.39-1.48-2.81-1.79c.42-.32,2.42-1.41,2.8-1.79s1.48-2.38,1.8-2.81c.31.43,1.41,2.43,1.79,2.81S359.8,629,360.22,629.28Z" transform="translate(-5.31 -6.58)"/><path class="cls-27" d="M348.61,636.54a4.3,4.3,0,1,0,0,6.09A4.32,4.32,0,0,0,348.61,636.54Z" transform="translate(-5.31 -6.58)"/><path class="cls-27" d="M348.61,617a4.3,4.3,0,1,0,0,6.09A4.3,4.3,0,0,0,348.61,617Z" transform="translate(-5.31 -6.58)"/><path class="cls-27" d="M368.36,636.54a4.31,4.31,0,1,0,0,6.09A4.33,4.33,0,0,0,368.36,636.54Z" transform="translate(-5.31 -6.58)"/><path class="cls-27" d="M368.36,617a4.31,4.31,0,1,0,0,6.09A4.31,4.31,0,0,0,368.36,617Z" transform="translate(-5.31 -6.58)"/><polyline class="cls-3" points="807.24 177.98 807.24 221.98 798.24 221.98 798.24 177.98"/><path class="cls-28" d="M803,220.86h9.5a0,0,0,0,1,0,0v7.67a0,0,0,0,1,0,0H795.36a0,0,0,0,1,0,0v0A7.67,7.67,0,0,1,803,220.86Z" transform="translate(-4.64 -8.97) rotate(0.17)"/><line class="cls-29" x1="790.07" y1="212.68" x2="793.16" y2="215.36"/><line class="cls-29" x1="793.5" y1="211" x2="793.58" y2="214.82"/><polyline class="cls-3" points="828.44 177.98 828.44 221.98 819.45 221.98 819.45 177.98"/><path class="cls-28" d="M824.24,220.86h9.5a0,0,0,0,1,0,0v7.67a0,0,0,0,1,0,0H816.56a0,0,0,0,1,0,0v0A7.67,7.67,0,0,1,824.24,220.86Z" transform="translate(-4.64 -9.03) rotate(0.17)"/><line class="cls-29" x1="811.27" y1="212.68" x2="814.36" y2="215.36"/><line class="cls-29" x1="814.7" y1="211" x2="814.78" y2="214.82"/><path class="cls-3" d="M860.21,133.5a12.09,12.09,0,0,1-10.52,12V180.6a3.78,3.78,0,0,1-3.78,3.78H791.08a3.79,3.79,0,0,1-3.79-3.78V145.48a12.09,12.09,0,0,1,1.56-24.07h59.28A12.08,12.08,0,0,1,860.21,133.5Z" transform="translate(-5.31 -6.58)"/><path class="cls-30" d="M837.45,147.64c0-2.93-2.9-5.32-5.52-5.32s-5.55,2.39-5.55,5.32" transform="translate(-5.31 -6.58)"/><path class="cls-30" d="M799.79,147.64c0-2.93,2.92-5.32,5.53-5.32s5.52,2.39,5.52,5.32" transform="translate(-5.31 -6.58)"/><circle class="cls-31" cx="810.48" cy="145.54" r="0.34"/><circle class="cls-31" cx="815.48" cy="145.54" r="0.34"/><g class="cls-32"><ellipse class="cls-33" cx="782.06" cy="152.85" rx="5.78" ry="5.77"/><ellipse class="cls-33" cx="844.44" cy="152.43" rx="5.78" ry="5.77"/></g><rect class="cls-5" x="523.66" y="818.17" width="93.41" height="93.41" transform="translate(1135.42 1723.16) rotate(-180)"/><path class="cls-2" d="M951.82,853.14v0a21.9,21.9,0,0,1-21.92,21.89h-8.62a22.34,22.34,0,0,1,1,6.69,22,22,0,0,1-21.92,21.92H828.66a22,22,0,0,1-20.89-28.61h-97a21.9,21.9,0,0,1-21.92-21.89v0A21.72,21.72,0,0,1,693.18,840h-12a21.92,21.92,0,1,1,0-43.84H900.39a21.92,21.92,0,0,1,21.92,21.92,21.67,21.67,0,0,1-4.4,13.14h12A21.9,21.9,0,0,1,951.82,853.14Z" transform="translate(-5.31 -6.58)"/><path class="cls-34" d="M513.68,801.44s1.54-17.65,3-17.65c0,0,8.27,4.91,16.29,4.91s16.31-4.93,16.31-4.93c1.49,0,4.23,17.65,4.23,17.65Z" transform="translate(-5.31 -6.58)"/><path class="cls-35" d="M591,801l-25-16.74a2.73,2.73,0,0,0-1.54-.44h-15.1a16.3,16.3,0,0,1-32.59,0H501.29a2.74,2.74,0,0,0-2.15,1.08L475.06,801a2.72,2.72,0,0,0-.75,3.75L486.53,823a2.71,2.71,0,0,0,3.76.75l8.28-5.53v61.95a2.72,2.72,0,0,0,2.72,2.72h63.09a2.71,2.71,0,0,0,2.71-2.72V818l8.64,5.84a2.72,2.72,0,0,0,3.76-.75l12.22-18.3A2.72,2.72,0,0,0,591,801Z" transform="translate(-5.31 -6.58)"/><polygon class="cls-36" points="542.93 801.25 514.32 829.64 524.76 829.33 510.17 853.97 541.29 823.25 531.39 823.25 542.93 801.25"/><rect class="cls-24" x="578.66" y="855.25" width="86.02" height="11.54"/><path class="cls-37" d="M584.18,873.86V932a2.43,2.43,0,0,0,2.42,2.43h81.24a2.43,2.43,0,0,0,2.42-2.43V873.86Zm37.11,50.26a2.27,2.27,0,0,1-2.27,2.27H594.81a2.27,2.27,0,0,1-2.27-2.27V883.06a2.27,2.27,0,0,1,2.27-2.26H619a2.27,2.27,0,0,1,2.27,2.26Zm40.27,0a2.27,2.27,0,0,1-2.27,2.27h-28.1a2.27,2.27,0,0,1-2.27-2.27V907.58a2.27,2.27,0,0,1,2.27-2.27h28.1a2.27,2.27,0,0,1,2.27,2.27Zm0-27.43a2.27,2.27,0,0,1-2.27,2.27h-28.1a2.27,2.27,0,0,1-2.27-2.27V883.08a2.27,2.27,0,0,1,2.27-2.27h28.1a2.27,2.27,0,0,1,2.27,2.27Z" transform="translate(-5.31 -6.58)"/><rect class="cls-19" x="578.87" y="855.05" width="86.08" height="72.77" rx="2.27"/><line class="cls-38" x1="578.87" y1="866.83" x2="664.94" y2="866.83"/><circle cx="585.24" cy="860.79" r="1.92"/><circle cx="591.05" cy="860.79" r="1.92"/><circle cx="596.86" cy="860.79" r="1.92"/><rect class="cls-39" x="587.23" y="874.21" width="28.74" height="45.57" rx="2.27"/><rect class="cls-39" x="623.61" y="874.21" width="32.64" height="18.14" rx="2.27"/><rect class="cls-39" x="623.61" y="898.73" width="32.64" height="21.04" rx="2.27"/><path class="cls-22" d="M750.71,575.9a15.57,15.57,0,0,0,.08-3.72,13.07,13.07,0,0,0-.64-3.09,9.93,9.93,0,0,0-2.92-4.51,8.16,8.16,0,0,0-6.26-2c-.67.11-2.43.41-3.16,1.81a2.71,2.71,0,0,0-.16,2.14,3.08,3.08,0,0,0,2.3,1.66c1.81.32,3.62-1.05,4.51-2.29,2.07-2.9.74-7.27-.8-9.73a12.18,12.18,0,0,0-7.35-5.15" transform="translate(-5.31 -6.58)"/><ellipse class="cls-10" cx="759.44" cy="569.6" rx="10.15" ry="3.01" transform="translate(-195.14 553.29) rotate(-36.28)"/><rect class="cls-7" x="617" y="542.21" width="276" height="276" transform="translate(1504.69 1353.83) rotate(-180)"/><ellipse class="cls-40" cx="749.92" cy="648.77" rx="171.77" ry="37.22"/><path class="cls-10" d="M775.11,630.85c11.43-14.9,29.51-39.62,40.94-54.52a15.85,15.85,0,0,1,25.08.51l47.49,63.37a244.08,244.08,0,0,1-54.54,4.18,163.49,163.49,0,0,1-26.8-3A145.92,145.92,0,0,1,775.11,630.85Z" transform="translate(-5.31 -6.58)"/><path class="cls-41" d="M805.49,592c1.68-2.84,3.18-4.86,4-6,.58-.82,1.74-2.36,6.58-8.67a15.85,15.85,0,0,1,25.08.51c7.91,10.56,8.06,10.75,8.21,10.94l0,0,6.86,9.27c.39.52-4.07,2.64-4.46,2.72a6.44,6.44,0,0,1-6.25-2.65c-.78-1.12-1.14-2.75-2.47-3.34a3,3,0,0,0-3.6.78c-1.3,1.81-.27,4.36-1.82,6.09a6.26,6.26,0,0,1-6,1.68c-3.23-.77-4.83-3.61-5.13-6.72-.14-1.4-.25-2.76-1.74-3.4a3.29,3.29,0,0,0-3,.31c-2.36,1.55-1.49,4.47-2.21,6.78a9.71,9.71,0,0,1-5.73,6c-3.05,1.2-7.39.85-9.74-1.91a7.55,7.55,0,0,1-1.66-4.36C802.33,598.75,802.53,597,805.49,592Z" transform="translate(-5.31 -6.58)"/><path class="cls-17" d="M775.11,630.85c11.43-14.9,29.51-39.62,40.94-54.52a15.85,15.85,0,0,1,25.08.51l47.49,63.37a244.08,244.08,0,0,1-54.54,4.18,163.49,163.49,0,0,1-26.8-3A145.92,145.92,0,0,1,775.11,630.85Z" transform="translate(-5.31 -6.58)"/><path class="cls-10" d="M591.27,677.56l69.67-97.9a21.15,21.15,0,0,1,33.48.68l63.4,84.6" transform="translate(-5.31 -6.58)"/><path class="cls-41" d="M647.81,599l13.13-18.64a21.15,21.15,0,0,1,33.48.68l9.41,12.27c-4.85,5.32-7.57,5.92-9.18,5.38-2.77-1-3-5.56-6.64-6.49a6.2,6.2,0,0,0-4,.47c-4.41,2-3.22,7.5-7.28,9.66-2.48,1.31-6.25,1-7.91-.8-1.85-2-.45-5.18-2.85-7a3.8,3.8,0,0,0-2.37-.79c-1.94.11-2.87,2.08-5.7,5.86-4.19,5.59-5.82,6.16-6.81,6.32-.23,0-2.7.42-4-1.1C646.08,603.54,646.25,601.13,647.81,599Z" transform="translate(-5.31 -6.58)"/><path class="cls-17" d="M591.27,677.56l69.67-97.9a21.15,21.15,0,0,1,33.48.68l63.4,84.6" transform="translate(-5.31 -6.58)"/><path class="cls-40" d="M786.13,489l-15,5.1-4.85,14.73a1.08,1.08,0,0,1-2.06,0l-4.55-14.72L744.37,489a1.08,1.08,0,0,1,0-2.06l15.23-4.36,4.56-15.45a1.08,1.08,0,0,1,2.06,0l5,15.37L786.09,487A1.08,1.08,0,0,1,786.13,489Z" transform="translate(-5.31 -6.58)"/><path class="cls-40" d="M711.41,533l-10.71,3.63-3.46,10.51a.77.77,0,0,1-1.47,0l-3.25-10.5-10.89-3.62a.77.77,0,0,1,0-1.47l10.86-3.11,3.25-11a.78.78,0,0,1,1.48,0l3.52,11,10.61,3.18A.77.77,0,0,1,711.41,533Z" transform="translate(-5.31 -6.58)"/><circle class="cls-21" cx="714.99" cy="612.64" r="35.43"/><circle class="cls-42" cx="649.23" cy="664.13" r="35.43"/><circle class="cls-14" cx="761.76" cy="630.72" r="39.81" transform="translate(-203.3 385.42) rotate(-25.66)"/><circle class="cls-42" cx="873.76" cy="662.61" r="39.81" transform="translate(-181.63 340.05) rotate(-20.43)"/><circle class="cls-6" cx="703.3" cy="671.26" r="45.58"/><g class="cls-43"><circle class="cls-33" cx="666.59" cy="651.58" r="4.2"/><circle class="cls-33" cx="668.33" cy="668.51" r="4.2"/><circle class="cls-33" cx="679.57" cy="660.29" r="4.2"/><circle class="cls-33" cx="685.91" cy="629.95" r="4.2"/><circle class="cls-33" cx="691.8" cy="647.44" r="4.2"/><circle class="cls-33" cx="709.68" cy="661.18" r="4.2"/><circle class="cls-33" cx="709.23" cy="641.37" r="4.2"/><circle class="cls-33" cx="705.73" cy="626.36" r="4.2"/><circle class="cls-33" cx="729.78" cy="638.7" r="4.2"/><circle class="cls-33" cx="722.19" cy="656.59" r="4.2"/><circle class="cls-33" cx="737.22" cy="664.82" r="4.2"/><circle class="cls-33" cx="743.23" cy="651.21" r="4.2"/><circle class="cls-33" cx="722.98" cy="671.94" r="4.2"/><circle class="cls-33" cx="697.06" cy="673.59" r="4.2"/></g><path class="cls-44" d="M926.94,658.15v19.93c0,30.95-24.55,33.07-56,43.67l-79.71,22.49c-16.35,5.84-22.35,8-25.32,19.53a72.37,72.37,0,0,0-2.12,13.8c-.06,1-.1,2-.13,2.87-.24,10.08,7.61,18.06,17.74,18.94,30,2.59,51.53,4.89,51.53,9.07,0,5.32-34.76,9.64-77.64,9.64s-77.65-4.32-77.65-9.64c0-4.2,21.9-6,52.1-9.09,10.18-1,17.81-8.8,17.65-18.82,0-1-.06-2.18-.14-3.39A68.9,68.9,0,0,0,745,763.48c-3-11.39-10.07-14-25.24-19.24l-80.2-22.49c-28.17-8.17-56-12.72-56-43.68V658.15a441.21,441.21,0,0,0,61.51,16.46c43.06,8.26,76.05,7.94,110.35,7.6,24.82-.25,59.45-.74,104.43-8.44A580.76,580.76,0,0,0,926.94,658.15Z" transform="translate(-5.31 -6.58)"/><circle class="cls-3" cx="746.33" cy="581.13" r="11.71"/><rect class="cls-25" x="745.81" y="582.48" width="3.97" height="6.12" transform="translate(387.64 -302.03) rotate(30)"/><line class="cls-22" x1="844.6" y1="638.49" x2="866.34" y2="626.67"/><line class="cls-22" x1="855.51" y1="646.65" x2="866.27" y2="649.81"/><line class="cls-22" x1="896.44" y1="652.56" x2="891.8" y2="640.32"/><line class="cls-22" x1="876.52" y1="662.72" x2="881.25" y2="645.8"/><line class="cls-22" x1="829.34" y1="660.79" x2="844.11" y2="660.15"/><line class="cls-22" x1="838.84" y1="645.8" x2="842.64" y2="649.18"/><line class="cls-22" x1="870.91" y1="635.53" x2="878.72" y2="635.32"/><line class="cls-22" x1="886.52" y1="629.14" x2="874.36" y2="616.92"/><line class="cls-22" x1="898.13" y1="638.21" x2="901.93" y2="635.89"/><line class="cls-22" x1="851.92" y1="625.97" x2="851.08" y2="621.33"/><line class="cls-22" x1="857.19" y1="658.89" x2="855.12" y2="666.48"/><path class="cls-45" d="M881.94,674" transform="translate(-5.31 -6.58)"/><path class="cls-45" d="M908.16,675.25" transform="translate(-5.31 -6.58)"/><path class="cls-46" d="M900.66,576.09l30.92-28.7a.26.26,0,0,1,.36.36L914.89,568a.25.25,0,0,0,.33.38l36.21-22a.26.26,0,0,1,.29.43l-31,24.21a.25.25,0,0,0,.24.44L942.7,564a.26.26,0,0,1,.2.47l-37.32,19.93c-.11,0,.76-2,.68-2.06l-5.62-6.88C900.55,575.34,900.56,576.18,900.66,576.09Z" transform="translate(-5.31 -6.58)"/><path class="cls-40" d="M913,584.07l-9.12,3.09L901,596.1a.66.66,0,0,1-1.25,0l-2.76-8.93-9.27-3.08a.65.65,0,0,1,0-1.25l9.24-2.65,2.76-9.38a.66.66,0,0,1,1.26,0l3,9.33,9,2.7A.66.66,0,0,1,913,584.07Z" transform="translate(-5.31 -6.58)"/><path class="cls-47" d="M750.93,648.19h66a0,0,0,0,1,0,0v0a14.53,14.53,0,0,1-14.53,14.53H765.46a14.53,14.53,0,0,1-14.53-14.53v0A0,0,0,0,1,750.93,648.19Z"/><rect class="cls-48" x="750.61" y="642.01" width="66.51" height="8.6" rx="4.22"/><circle class="cls-49" cx="779.95" cy="629.5" r="6.05"/><rect class="cls-50" x="772.22" y="635.63" width="16.14" height="15" rx="6.86"/><line class="cls-49" x1="771.14" y1="627.35" x2="785.65" y2="622.81"/><path class="cls-51" d="M786.25,627.35a3.65,3.65,0,0,0-7,2.18l1,3.21,7-2.18Z" transform="translate(-5.31 -6.58)"/><polygon class="cls-52" points="824.18 614.66 790.95 627.75 788.84 623.04 820.69 606.89 824.18 614.66"/><ellipse class="cls-53" cx="828.53" cy="617.02" rx="3.01" ry="4.35" transform="translate(-185.41 387.17) rotate(-24.19)"/><line class="cls-54" x1="794.77" y1="650.05" x2="802.32" y2="623.3"/><line class="cls-54" x1="808.91" y1="641.87" x2="804.88" y2="622.76"/><rect class="cls-3" x="773.25" y="667.85" width="6.77" height="9.03" rx="3.38" transform="translate(433.72 -304.41) rotate(29.93)"/><line class="cls-17" x1="779.94" y1="651.15" x2="773.29" y2="662.36"/><path class="cls-40" d="M825.23,551.75,815,555.22l-3.3,10a.73.73,0,0,1-1.39,0l-3.09-10-10.37-3.46a.73.73,0,0,1,0-1.4l10.34-3,3.09-10.49a.73.73,0,0,1,1.4,0l3.36,10.44,10.11,3A.73.73,0,0,1,825.23,551.75Z" transform="translate(-5.31 -6.58)"/><path class="cls-55" d="M126.84,714.42s-13.43,13.5-16.12,33c13.65,1,27.33,1.54,41,1.77,27.2.43,54.39-.34,81.59-.85,13.7-.27,27.4-.49,41.1-.46h1.69c-2.54-19.71-16.17-33.42-16.17-33.42l12.51,7.51c-1.65-18.08-25.19-34.06-25.19-34.06l9.64,1.91c-6.66-13.23-21.21-15.43-28-15.7l-72.4.28a42.12,42.12,0,0,0-27.69,14.84l10.76-1.33s-25.15,17.57-24.22,32.38Z" transform="translate(-5.31 -6.58)"/><path class="cls-56" d="M126.84,714.42s-13.43,13.5-16.12,33q6.65.5,13.28.85c3.06-15.18,13.31-25.45,13.31-25.45l-9.78,5c-.85-12.63,20.58-27.62,20.58-27.62l-9.18,1.11a35.92,35.92,0,0,1,23.61-12.65s15.56,7.78,31.39,7.78,30.39-8,30.39-8c5.83.24,18.21,2.12,23.89,13.4L240,700.12s20.07,13.63,21.47,29l-10.67-6.4A55.2,55.2,0,0,1,264,747.86h12.11C273.58,728.14,260,714.44,260,714.44L272.46,722c-1.64-18.08-25.18-34.06-25.18-34.06l9.64,1.91c-6.66-13.23-21.21-15.43-28-15.71l-72.39.29a42.12,42.12,0,0,0-27.69,14.84l10.76-1.33s-25.17,17.56-24.24,32.37Z" transform="translate(-5.31 -6.58)"/><path class="cls-55" d="M221.39,579.79l-6.92,6.59s13.64-2.6,22.38,6l-7.4,3.31s16.12,11.41,17.71,18H238s12.58,12.63,11.15,29.62l-9.69-1.57s7.11,16.36,1.5,25.9l-9.12-2.55s.38,8.75-6.79,14.28l-9.64-4.14s-4.24,6.94-7.44,9.12l-8.39-4.87-6.47,6.19-6.79-6.19L178,684.36c-3.23-2.17-7.47-9.12-7.47-9.12l-9.7,4.15c-7.15-5.54-6.78-14.28-6.78-14.28l-9.13,2.55c-5.61-9.54,1.5-25.9,1.5-25.9l-9.69,1.57c-1.43-17,11.15-29.62,11.15-29.62h-9.14c1.63-6.58,17.71-18,17.71-18L149,592.41c8.72-8.63,22.36-6,22.36-6l-6.92-6.59c4.16-2.54,20.2.66,20.2.66s7.17-9.49,12.78-9.49l.85,9.89S214.31,576.38,221.39,579.79Z" transform="translate(-5.31 -6.58)"/><path class="cls-56" d="M238,613.72h9.13c-1.63-6.58-17.71-18-17.71-18l7.4-3.3c-8.74-8.63-22.38-6-22.38-6l6.91-6.6c-7.09-3.39-23.06,1.06-23.06,1.06l-.85-9.89c-5.62,0-12.78,9.49-12.78,9.49s-16-3.21-20.2-.66l6.92,6.59s-13.65-2.6-22.38,6l7.38,3.31s-16.11,11.41-17.71,18h9.13s-12.58,12.63-11.15,29.62l9.69-1.57s-7.11,16.36-1.5,25.9l9.13-2.55s-.38,8.74,6.78,14.28l9.71-4.15s4.24,7,7.44,9.12l8.39-4.86,6.79,6.19,6.47-6.19,8.39,4.87c3.18-2.18,7.45-9.12,7.45-9.12l9.69,4.14c7.16-5.53,6.79-14.28,6.79-14.28l9.13,2.55c5.6-9.54-1.5-25.9-1.5-25.9l9.68,1.57C250.62,626.35,238,613.72,238,613.72Zm.63,21.72-7.87-1.27s5.78,13.3,1.22,21.05l-7.42-2.07a14.93,14.93,0,0,1-5.51,11.6l-7.88-3.36H174.67l-7.88,3.39a14.93,14.93,0,0,1-5.51-11.6l-7.42,2.07c-4.55-7.76,1.22-21.06,1.22-21.06l-7.87,1.27c-1.17-13.83,9.06-24.12,9.06-24.12h-7.42c1.32-5.34,14.42-14.63,14.42-14.63l-6-2.68c7.1-7,18.18-4.91,18.18-4.91l-5.62-5.35c3.39-2.08,16.42.53,16.42.53s5.81-7.74,10.37-7.74l.72,8s13-3.62,18.75-.84l-5.62,5.35s11.08-2.12,18.18,4.9l-6,2.68s13.08,9.33,14.42,14.63h-7.42S239.84,621.63,238.67,635.44Z" transform="translate(-5.31 -6.58)"/><path class="cls-54" d="M111,745.46c1.7-11.88,8.48-22.06,15.83-31l-11.48,5.84c.72-15.5,14.29-24,24.13-32.39l-10.75,1.33a42.33,42.33,0,0,1,27.68-14.83" transform="translate(-5.31 -6.58)"/><path class="cls-54" d="M229.69,674.11c11.14.45,22,5.4,27.14,15.71l-9.63-1.92c11.38,8.41,23.25,19.44,25.18,34.07l-12.51-7.52c8,9,14,19.18,15.89,31.47" transform="translate(-5.31 -6.58)"/><path class="cls-54" d="M221.39,579.79l-6.92,6.59s13.64-2.6,22.38,6l-7.4,3.31s16.12,11.41,17.71,18H238s12.58,12.63,11.15,29.62l-9.69-1.57s7.11,16.36,1.5,25.9l-9.12-2.55s.38,8.75-6.79,14.28l-9.64-4.14s-4.24,6.94-7.44,9.12l-8.39-4.87-6.47,6.19-6.79-6.19L178,684.36c-3.23-2.17-7.47-9.12-7.47-9.12l-9.7,4.15c-7.15-5.54-6.78-14.28-6.78-14.28l-9.13,2.55c-5.61-9.54,1.5-25.9,1.5-25.9l-9.69,1.57c-1.43-17,11.15-29.62,11.15-29.62h-9.14c1.63-6.58,17.71-18,17.71-18L149,592.41c8.72-8.63,22.36-6,22.36-6l-6.92-6.59c4.16-2.54,20.2.66,20.2.66s7.17-9.49,12.78-9.49l.85,9.89S214.31,576.38,221.39,579.79Z" transform="translate(-5.31 -6.58)"/><path class="cls-54" d="M155,713.05a104.37,104.37,0,0,0-10,39.38" transform="translate(-5.31 -6.58)"/><path class="cls-54" d="M233.45,713.05s10.63,19.69,10,39.38" transform="translate(-5.31 -6.58)"/><polyline class="cls-57" points="365.52 816.48 303.17 739.97 68.76 739.97 5.56 816.48"/><polygon class="cls-58" points="265.08 744.51 109.07 744.51 76.27 788.88 297.48 788.88 265.08 744.51"/><polyline class="cls-57" points="311.5 776.36 333.36 802.09 291 802.09 272.48 776.36 272.48 767.65"/><polyline class="cls-59" points="312.05 773.67 333.92 799.4 291.56 799.4"/><polyline class="cls-59" points="312.05 772.01 333.92 797.73 291.56 797.73"/><polyline class="cls-59" points="312.05 770.34 333.92 796.07 291.56 796.07"/><polygon class="cls-57" points="311.5 767.65 272.48 767.65 291 793.38 333.36 793.38 311.5 767.65"/><line class="cls-54" x1="291" y1="793.38" x2="291" y2="802.09"/><polyline class="cls-54" points="282.39 767.65 302.62 793.38 302.62 802.09"/><path class="cls-60" d="M77.78,782.61l-6.27,23.75c0,2.92-7.26,5.29-16.22,5.29S39,809.26,39,806.34l-6.27-23.75" transform="translate(-5.31 -6.58)"/><ellipse class="cls-60" cx="49.97" cy="776.03" rx="22.5" ry="7.33"/><path class="cls-29" d="M77.66,785.77c0,4.05-10,7.33-22.23,7.33s-22.22-3.28-22.22-7.33" transform="translate(-5.31 -6.58)"/><path class="cls-29" d="M76.89,788.32c0,4-9.67,7.33-21.6,7.33s-21.62-3.28-21.62-7.33" transform="translate(-5.31 -6.58)"/><path class="cls-60" d="M49.8,780s3-30.45,2.35-53.7c0,0,19.15,16.21,6.44,53.7" transform="translate(-5.31 -6.58)"/><path class="cls-60" d="M43.31,783.54s-9.89-40.59,2-49.37c0,0,12,21.35,5.89,49.37" transform="translate(-5.31 -6.58)"/><path class="cls-60" d="M58.45,783S55.06,744,67.26,738.53c0,0,5,23.65-1.55,45" transform="translate(-5.31 -6.58)"/><path d="M40.19,784a16.83,16.83,0,0,0,10.61,1.46c4.59-.66,11.88-2.47,16,.37,1.35.93,2.63-1.28,1.29-2.2-7.84-5.35-18.44,2.29-26.62-1.84C40,781,38.73,783.22,40.19,784Z" transform="translate(-5.31 -6.58)"/><path class="cls-29" d="M45.07,735.3s-6.43,9.1,2.54,47.56" transform="translate(-5.31 -6.58)"/><path class="cls-29" d="M65.59,739.55s-6.17,26.92-3,43.66" transform="translate(-5.31 -6.58)"/><path class="cls-29" d="M52.23,730.23s6.34,8.12,6.71,21.46" transform="translate(-5.31 -6.58)"/><circle class="cls-61" cx="39.43" cy="739.33" r="0.48"/><circle class="cls-61" cx="50.27" cy="734.38" r="0.48"/><circle class="cls-61" cx="50.27" cy="743.84" r="0.48"/><circle class="cls-61" cx="51.67" cy="747.07" r="0.48"/><circle class="cls-61" cx="59.99" cy="745.11" r="0.48"/><circle class="cls-61" cx="56.35" cy="747.54" r="0.48"/><circle class="cls-61" cx="58.7" cy="751.82" r="0.48"/><circle class="cls-61" cx="58.23" cy="760.16" r="0.48"/><circle class="cls-61" cx="59.99" cy="766.7" r="0.48"/><circle class="cls-61" cx="58.23" cy="768.7" r="0.48"/><circle class="cls-61" cx="55.1" cy="763.23" r="0.48"/><circle class="cls-61" cx="38.95" cy="743.07" r="0.48"/><circle class="cls-61" cx="42.28" cy="746.13" r="0.48"/><circle class="cls-61" cx="39.43" cy="748.89" r="0.48"/><circle class="cls-61" cx="37.05" cy="753.58" r="0.48"/><circle class="cls-61" cx="42.99" cy="759.5" r="0.48"/><circle class="cls-61" cx="41.8" cy="762.28" r="0.48"/><circle class="cls-61" cx="42.52" cy="768.22" r="0.48"/><ellipse class="cls-55" cx="101.77" cy="738.8" rx="6.11" ry="8.82"/><ellipse class="cls-55" cx="113.99" cy="738.8" rx="6.11" ry="8.82"/><ellipse class="cls-55" cx="126.21" cy="738.8" rx="6.11" ry="8.82"/><path class="cls-62" d="M137.63,744.24c-.24-4.55-2.87-8.15-6.09-8.15-3.4,0-6.09,3.92-6.11,8.76C129.08,742.33,134.13,741.75,137.63,744.24Z" transform="translate(-5.31 -6.58)"/><path class="cls-62" d="M118.67,742.7c2.54-.13,4.41,1.07,6.19,2.55.19-.15.37-.29.57-.43,0-4.84-2.75-8.76-6.12-8.76s-6.1,4-6.1,8.82v.23C114.27,743.34,116.71,742.82,118.67,742.7Z" transform="translate(-5.31 -6.58)"/><path class="cls-62" d="M106,742.42c2.79,0,4.89,1.44,7.21,2.74v-.25c0-4.86-2.73-8.82-6.11-8.82s-6,3.81-6.1,8.55A7.15,7.15,0,0,1,106,742.42Z" transform="translate(-5.31 -6.58)"/><ellipse class="cls-54" cx="101.77" cy="738.8" rx="6.11" ry="8.82"/><ellipse class="cls-54" cx="113.99" cy="738.8" rx="6.11" ry="8.82"/><ellipse class="cls-54" cx="126.21" cy="738.8" rx="6.11" ry="8.82"/><ellipse class="cls-55" cx="248.62" cy="738.8" rx="6.11" ry="8.82"/><ellipse class="cls-55" cx="260.84" cy="738.8" rx="6.11" ry="8.82"/><ellipse class="cls-55" cx="273.06" cy="738.8" rx="6.11" ry="8.82"/><path class="cls-62" d="M284.48,744.71c-.24-4.55-2.87-8.14-6.09-8.14-3.39,0-6.09,3.91-6.1,8.75C275.93,742.82,281,742.23,284.48,744.71Z" transform="translate(-5.31 -6.58)"/><path class="cls-62" d="M265.5,743.18c2.55-.13,4.41,1.06,6.2,2.54.19-.14.37-.29.56-.42,0-4.85-2.75-8.76-6.11-8.76s-6.11,4-6.11,8.82v.23C261.12,743.8,263.56,743.27,265.5,743.18Z" transform="translate(-5.31 -6.58)"/><path class="cls-62" d="M252.84,742.89c2.79,0,4.89,1.44,7.21,2.74v-.25c0-4.87-2.73-8.81-6.11-8.81s-6,3.8-6.1,8.55A7.12,7.12,0,0,1,252.84,742.89Z" transform="translate(-5.31 -6.58)"/><ellipse class="cls-54" cx="248.62" cy="738.8" rx="6.11" ry="8.82"/><ellipse class="cls-54" cx="260.84" cy="738.8" rx="6.11" ry="8.82"/><ellipse class="cls-54" cx="273.06" cy="738.8" rx="6.11" ry="8.82"/><path class="cls-63" d="M166.38,655.45c1.7,6.06,10.51,12.8,23.86,12.82h6.31c6.73,0,21.42-4.34,23.86-12.82,1.82-6.35,0-10,0-10a99.38,99.38,0,0,0-24.22-3H190.6a99.38,99.38,0,0,0-24.22,3S164.56,649.07,166.38,655.45Z" transform="translate(-5.31 -6.58)"/><polyline class="cls-64" points="197.51 660.64 200.42 644.54 212.26 653.47"/><polyline class="cls-64" points="177.61 660.73 175.01 644.18 164.62 653.47"/><path class="cls-65" d="M166.38,655.45c1.7,6.06,10.51,12.8,23.86,12.82h6.31c6.73,0,21.42-4.34,23.86-12.82,1.82-6.35,0-10,0-10a99.38,99.38,0,0,0-24.22-3H190.6a99.38,99.38,0,0,0-24.22,3S164.56,649.07,166.38,655.45Z" transform="translate(-5.31 -6.58)"/><ellipse class="cls-66" cx="191.24" cy="626.72" rx="1.82" ry="2.05"/><ellipse class="cls-66" cx="184.92" cy="626.72" rx="1.82" ry="2.05"/><path class="cls-67" d="M215.84,627c0-3.47-3.44-6.3-6.54-6.3s-6.57,2.83-6.57,6.3" transform="translate(-5.31 -6.58)"/><path class="cls-67" d="M171.25,627c0-3.47,3.45-6.3,6.55-6.3s6.54,2.83,6.54,6.3" transform="translate(-5.31 -6.58)"/><rect class="cls-68" x="129.63" y="700.18" width="114.19" height="78.8" rx="3.39"/><circle class="cls-69" cx="185.85" cy="742.09" r="5.9"/><path class="cls-70" d="M804.79,165.29c.87,3.1,5.38,6.55,12.22,6.56h3.23c3.44,0,11-2.22,12.21-6.56.93-3.25,0-5.1,0-5.1a50.79,50.79,0,0,0-12.4-1.52h-2.86a50.85,50.85,0,0,0-12.4,1.52S803.86,162,804.79,165.29Z" transform="translate(-5.31 -6.58)"/><polyline class="cls-71" points="817.28 165.23 818.55 158.21 823.72 162.1"/><polyline class="cls-71" points="808.6 165.27 807.47 158.05 802.94 162.1"/><path class="cls-17" d="M804.74,165.31c1.9,5.11,8.15,6.52,13,6.64,4,.1,8.64-.79,12-3.22a7.58,7.58,0,0,0,2.8-4.16c.35-1.31.88-4-.69-4.7a12.9,12.9,0,0,0-3.27-.52,115.66,115.66,0,0,0-21.72.19,2.91,2.91,0,0,0-2.05,1,1.49,1.49,0,0,0-.24.55A7.59,7.59,0,0,0,804.74,165.31Z" transform="translate(-5.31 -6.58)"/><polyline class="cls-17" points="283.09 723.18 283.19 207.43 474.96 207.43"/><rect class="cls-7" x="479.71" y="76.69" width="137.33" height="137.33" transform="translate(1091.43 284.13) rotate(-180)"/><path class="cls-48" d="M490.28,123.52,486.34,126l4.26,6.91a1.5,1.5,0,0,1-.49,2.06l-3.46,2.13a1.49,1.49,0,0,1-2-.49l-4.26-6.92-4,2.44a1.33,1.33,0,0,1-2-.79l-7.1-26.52a1.51,1.51,0,0,1,2.45-1.52l20.71,18.14A1.33,1.33,0,0,1,490.28,123.52Z" transform="translate(-5.31 -6.58)"/><polygon class="cls-42" points="501.27 106.97 501.27 171.37 528.27 177.11 553 169.36 583.22 175.39 583.22 106.11 553.34 109.19 528.27 104.4 501.27 106.97"/><line class="cls-38" x1="528.27" y1="104.4" x2="528.27" y2="177.11"/><line class="cls-72" x1="553.34" y1="109.19" x2="552.99" y2="169.36"/><line class="cls-54" x1="568.38" y1="159.39" x2="577.3" y2="166.05"/><line class="cls-54" x1="576.17" y1="158.25" x2="569.5" y2="167.19"/><path class="cls-29" d="M514,121c2.93-.83,6.15,1.29,7,3.91s0,5.45-1.25,7.95-2.91,4.87-3.67,7.52-.48,5.77,1.73,7.68c.93.81,2.15,1.39,2.8,2.41a5,5,0,0,1,.51,2.28,46.82,46.82,0,0,1-.81,10.3,5,5,0,0,0-.11,2.07c.34,1.43,2,2.38,3.59,2.65a10.17,10.17,0,0,0,7.13-1.81,22.16,22.16,0,0,0,5-5.07c2.88-3.73,5.58-7.85,5.6-12.36,0-2.52-.81-5-.74-7.52s1.36-5.24,4.11-6c3.07-.83,6.21,1.33,9.42,1.26a10.25,10.25,0,0,0,6.45-3,51.09,51.09,0,0,1,5.25-4.72c2-1.34,4.74-2.15,7-1.23a7.11,7.11,0,0,1,3.87,4.59,13.63,13.63,0,0,1,.12,8.24c-1.16,3.83-5.44,4.3-6.71,8.06-1.45,4.29,5.45,8,7.29,12.24" transform="translate(-5.31 -6.58)"/><line class="cls-20" x1="501.09" y1="106.84" x2="475.09" y2="70.62"/><line class="cls-20" x1="582.93" y1="106.28" x2="610.56" y2="70.62"/><line class="cls-20" x1="474.53" y1="206.89" x2="501.28" y2="171.6"/><line class="cls-20" x1="611.65" y1="207.46" x2="583.21" y2="175.36"/><polyline class="cls-17" points="611.72 203.97 611.72 535.6 93.96 535.6"/><line class="cls-17" x1="283.55" y1="496.83" x2="611.58" y2="496.83"/><polygon class="cls-16" points="455.45 342.06 444.65 337.41 369.2 512.3 380.04 512.53 455.45 342.06"/><polygon class="cls-16" points="436.46 342.06 447.26 337.41 522.71 512.3 511.87 512.53 436.46 342.06"/><path class="cls-73" d="M527.89,430.53c-6.17,6.51-18.05,16.15-35.65,23.57-18,7.61-33.8,9.31-42.83,9.11V352Z" transform="translate(-5.31 -6.58)"/><path class="cls-74" d="M527.89,274a104.8,104.8,0,0,0-78.48-32.68v111.2Z" transform="translate(-5.31 -6.58)"/><path class="cls-75" d="M370.77,430.53c6.17,6.51,18.1,15.5,35.69,22.91,18.05,7.61,33.75,10,42.78,9.77V352Z" transform="translate(-5.31 -6.58)"/><path class="cls-24" d="M370.77,274a104.76,104.76,0,0,1,78.47-32.68v111.2Z" transform="translate(-5.31 -6.58)"/><path class="cls-23" d="M371.05,430.82a104.8,104.8,0,0,1-32.67-78.47H449.57Z" transform="translate(-5.31 -6.58)"/><path class="cls-76" d="M527.6,430.82a104.8,104.8,0,0,0,32.67-78.47H449.08Z" transform="translate(-5.31 -6.58)"/><path class="cls-77" d="M371.05,273.7a104.8,104.8,0,0,0-32.67,78.47H449.57Z" transform="translate(-5.31 -6.58)"/><path class="cls-33" d="M527.6,273.7a104.8,104.8,0,0,1,32.67,78.47H449.08Z" transform="translate(-5.31 -6.58)"/><circle class="cls-17" cx="443.97" cy="345.15" r="110.85"/><circle class="cls-20" cx="443.97" cy="345.15" r="47.1"/><line class="cls-17" x1="443.97" y1="234.51" x2="443.97" y2="456.79"/><line class="cls-17" x1="555.11" y1="345.65" x2="332.83" y2="345.65"/><line class="cls-17" x1="365.38" y1="267.06" x2="522.55" y2="424.24"/><line class="cls-17" x1="522.55" y1="267.06" x2="365.38" y2="424.24"/><line class="cls-20" x1="414.56" y1="272.45" x2="473.37" y2="418.85"/><line class="cls-20" x1="517.17" y1="316.24" x2="370.77" y2="375.06"/><line class="cls-20" x1="371.42" y1="314.69" x2="516.52" y2="376.62"/><line class="cls-20" x1="474.93" y1="273.1" x2="413" y2="418.2"/><rect class="cls-40" x="538.37" y="335.19" width="36.24" height="20.84" rx="10.42"/><rect class="cls-40" x="317.37" y="335.19" width="36.24" height="20.84" rx="10.42"/><rect class="cls-40" x="427.78" y="225.29" width="36.24" height="20.84" rx="10.42"/><rect class="cls-40" x="507.24" y="259.07" width="36.24" height="20.84" rx="10.42"/><rect class="cls-40" x="348.24" y="259.07" width="36.24" height="20.84" rx="10.42"/><rect class="cls-40" x="507.24" y="416.07" width="36.24" height="20.84" rx="10.42"/><rect class="cls-40" x="348.24" y="416.07" width="36.24" height="20.84" rx="10.42"/><rect class="cls-40" x="427.78" y="444.29" width="36.24" height="20.84" rx="10.42"/></svg>